<svg id="e0PxFbLs4G51" xmlns="http://www.w3.org/2000/svg" xmlns:xlink="http://www.w3.org/1999/xlink" viewBox="0 0 640 640" shape-rendering="geometricPrecision" text-rendering="geometricPrecision" width="640" height="640" style="background-color:#6cf8ff"><defs><linearGradient id="e0PxFbLs4G53-fill" x1="0.120373" y1="0.835825" x2="1.163177" y2="0.010294" spreadMethod="pad" gradientUnits="objectBoundingBox" gradientTransform="translate(0 0)"><stop id="e0PxFbLs4G53-fill-0" offset="1%" stop-color="#bd4907"/><stop id="e0PxFbLs4G53-fill-1" offset="100%" stop-color="#e15b10"/></linearGradient><linearGradient id="e0PxFbLs4G54-fill" x1="0.120373" y1="0.835825" x2="1.06635" y2="-0.440826" spreadMethod="pad" gradientUnits="objectBoundingBox" gradientTransform="translate(0 0)"><stop id="e0PxFbLs4G54-fill-0" offset="0%" stop-color="#d85e17"/><stop id="e0PxFbLs4G54-fill-1" offset="100%" stop-color="#e16723"/></linearGradient><linearGradient id="e0PxFbLs4G56-fill" x1="1.636801" y1="-0.552278" x2="0.401187" y2="0.886182" spreadMethod="pad" gradientUnits="objectBoundingBox" gradientTransform="translate(0 0)"><stop id="e0PxFbLs4G56-fill-0" offset="0%" stop-color="#7e93ff"/><stop id="e0PxFbLs4G56-fill-1" offset="100%" stop-color="#2d3a79"/></linearGradient><linearGradient id="e0PxFbLs4G57-fill" x1="0.552941" y1="-0.253918" x2="0.6" y2="1.269592" spreadMethod="pad" gradientUnits="objectBoundingBox" gradientTransform="translate(0 0)"><stop id="e0PxFbLs4G57-fill-0" offset="0%" stop-color="#2c246e"/><stop id="e0PxFbLs4G57-fill-1" offset="100%" stop-color="#5249da"/></linearGradient><linearGradient id="e0PxFbLs4G513-fill" x1="0.489361" y1="-0.00383" x2="0.49637" y2="0.706156" spreadMethod="pad" gradientUnits="objectBoundingBox" gradientTransform="translate(0 0)"><stop id="e0PxFbLs4G513-fill-0" offset="0%" stop-color="#7977cf"/><stop id="e0PxFbLs4G513-fill-1" offset="99%" stop-color="#28377c"/></linearGradient><linearGradient id="e0PxFbLs4G514-fill" x1="1.636801" y1="-0.552278" x2="0.401187" y2="0.886182" spreadMethod="pad" gradientUnits="objectBoundingBox" gradientTransform="translate(0 0)"><stop id="e0PxFbLs4G514-fill-0" offset="0%" stop-color="#7e93ff"/><stop id="e0PxFbLs4G514-fill-1" offset="100%" stop-color="#2d3a79"/></linearGradient><linearGradient id="e0PxFbLs4G517-fill" x1="0.097557" y1="0.736155" x2="0.619051" y2="0.185525" spreadMethod="pad" gradientUnits="objectBoundingBox" gradientTransform="translate(0 0)"><stop id="e0PxFbLs4G517-fill-0" offset="0%" stop-color="#ff518c"/><stop id="e0PxFbLs4G517-fill-1" offset="100%" stop-color="#cf1d58"/></linearGradient></defs><rect width="918.419929" height="335.443047" rx="0" ry="0" transform="translate(-222.20163 388.537051)" fill="#f3e9cb" stroke-width="0"/><path d="M242.536418,496.48097l-2.074585,30.65704q-16.732329-3.08745-46.708324-9.55286c-29.975995-6.46541-36.441406,24.098349-24.686114,28.800466s18.324663-2.559943,27.037172-8.816469q8.712509-6.256526-12.160546,8.194051-1.456224,25.87897,24.405419,10.59709t9.312594-4.495735c-22.174489,16.477799-5.999078,20.60307,6.422478,17.340692s17.864365-1.093421,27.295534-19.267436q-5.401351,1.430619,18.625188,4.495735t9.312594-8.349222l-12.844957-11.881586l9.41219-23.493012-33.348643-14.228754Z" transform="translate(9.488777 27.459563)" fill="url(#e0PxFbLs4G53-fill)" stroke-width="1.28"/><path d="M242.536418,496.48097l-2.074585,30.65704q-16.732329-3.08745-46.708324-9.55286c-29.975995-6.46541-36.441406,24.098349-24.686114,28.800466s18.324663-2.559943,27.037172-8.816469q8.712509-6.256526-12.160546,8.194051-1.456224,25.87897,24.405419,10.59709t9.312594-4.495735c-22.174489,16.477799-5.999078,20.60307,6.422478,17.340692s17.864365-1.093421,27.295534-19.267436q-5.401351,1.430619,18.625188,4.495735t9.312594-8.349222l-12.844957-11.881586l9.41219-23.493012-17.590743-7.505376-15.7579-6.723378Z" transform="matrix(.968647-.248439 0.248439 0.968647 19.623343 113.600808)" fill="url(#e0PxFbLs4G54-fill)" stroke-width="1.28"/><g transform="translate(-10.549521 112.281084)"><path d="M354.767411,287.339369c18.520077,13.644275,64.300979,44.149314,49.978488,75.523048-13.835487,30.30694-59.359521,46.06368-136.699225,19.517968-2.722331-.9344-5.484082-1.921213-8.285259-2.96165-82.38084-30.598598-146.502758-67.243024-162.606937-92.232268c139.939766,2.221266,179.402161-42.972731,257.612933.152902Z" transform="matrix(-.386103-.845838 1.273433-.581288-119.352835 656.285276)" fill="url(#e0PxFbLs4G56-fill)" stroke-width="1.28"/><path d="M161.093907,182.794232L153.198115,45.933837q23.316445,18.847095,36.901499,23.233646c13.585054,4.386551,38.167828,10.966378,123.700742,22.371411q123.700741-11.843688,142.124256-19.73948t32.844661-20.60172q-11.789216,141.670531-11.789216,146.934392t-315.88615-15.337854Z" transform="translate(39.478964-86.853707)" fill="url(#e0PxFbLs4G57-fill)" stroke-width="1.28"/><g><path d="M24.737808,461.495211Q50.958656,219.456607,347.455945,100.454294t181.528952-72.611582c68.135665-14.633423,117.451572,42.067518,80.67953,108.917369L462.424277,265.847336Q268.793404,471.580157,24.737808,461.495211Z" transform="matrix(.666117 0.665497-.797026 0.797768 294.393097-125.359342)" fill="#f3f46b" stroke-width="1.28"/><g transform="translate(.000001-114.999999)"><rect width="783.33869" height="56.345415" rx="0" ry="0" transform="matrix(.996109 0.088128-.032004 0.361744-71.640112 345.92328)" fill="#d2dbed" stroke-width="0"/><rect width="783.33869" height="56.345415" rx="0" ry="0" transform="matrix(.996109 0.088128-.032004 0.361744-81.26006 378.905961)" fill="#d2dbed" stroke-width="0"/></g></g><ellipse rx="236.187196" ry="236.187196" transform="matrix(.783461 0 0 0.948228 355.906965 218.943873)" fill="url(#e0PxFbLs4G513-fill)" stroke-width="0"/><path d="M354.767411,287.339369c18.520077,13.644275,64.300979,44.149314,49.978488,75.523048-13.835487,30.30694-59.359521,46.06368-136.699225,19.517968-2.722331-.9344-5.484082-1.921213-8.285259-2.96165-82.38084-30.598598-155.957415-63.79751-172.061594-88.786754c139.939766,2.221266,188.856818-46.418245,267.06759-3.292612Z" transform="matrix(.283653-.885471-1.333101-.427047 879.904019 621.616979)" fill="url(#e0PxFbLs4G514-fill)" stroke-width="1.28"/></g><g transform="translate(40.432155 3.485708)"><path d="M160.428288,154.590769l97.762003,14.158635q-8.764871,74.164276-17.52974,78.209601c-8.764869,4.045325-84.27759,0-84.95181-11.461752s.000004-78.883821,4.719547-80.906484Z" transform="matrix(1.262817-.067103 0.049282 0.927455-66.802813 26.650817)" stroke-width="1.28"/><path d="M407.475179,108.437143c-4.300322-7.112425-7.72753-17.076262-8.001125-23.057547s-4.866188-16.382253,30.847451-.263663s20.610395,24.514068,8.382773,31.876233-12.306411,18.302987-31.229099-8.555023Z" transform="matrix(.956952-.731272-.850754-1.113308-48.689771 665.917978)" fill="url(#e0PxFbLs4G517-fill)" stroke-width="1.28"/><path d="M160.428288,154.590769l97.762003,14.158635q-8.764871,74.164276-17.52974,78.209601c-8.764869,4.045325-84.27759,0-84.95181-11.461752s.000004-78.883821,4.719547-80.906484Z" transform="matrix(-1.256156-.145886-.107143 0.922562 625.076483 47.062193)" stroke-width="1.28"/><rect width="49.954776" height="14.653401" rx="0" ry="0" transform="matrix(1 0 0 1.60373 247.050854 165.23388)" stroke-width="0"/><ellipse rx="24.814108" ry="4.57736" transform="translate(317.368666 179.980098)" fill="#d2dbed" stroke-width="0"/><ellipse rx="24.814108" ry="4.57736" transform="translate(170.13827 176.150995)" fill="#d2dbed" stroke-width="0"/><path d="M406.361064,185.238436l48.925735,26.482737l6.732899,14.812377q-18.184033-5.53266-53.643969-14.060999t-2.014665-27.234115Z" transform="translate(-.652041-16.935801)" stroke-width="1.28"/></g><g transform="translate(-1.711227-.171123)"><g transform="translate(1.490102-7.146005)"><path d="M533.650726,595.624391q.000001,5.899659,3.517105,6.580389c3.517104.68073.907639-4.424745-.113456-6.580389s5.899658,3.063283,6.013113,3.744013-.226909,6.126569-.453819,6.126569-4.424745,2.382554-6.12657,1.474914-4.424745-.907642-4.99202-2.382556-5.332379-10.664762,2.155647-8.96294Z" transform="translate(.000003 0.000003)" fill="#f57125" stroke-width="1.28"/><path d="M537.325309,606.84757q0,.18466,9.232989,6.647753q4.801154-2.769898,4.616494-2.769898t-8.49435-5.724455q-5.355134,1.661937-5.355133,1.8466Z" transform="translate(.000001 0.000004)" fill="#f57125" stroke-width="1.28"/></g><g transform="translate(-.968949-5.086986)"><path d="M550.866478,610.826903q-12.899895,2.75391-11.740354,7.102189t6.087591,11.305525l-2.319082-12.610009q7.681959-2.029197,9.421271-2.029197t4.348279-2.464025q-5.797704-1.014597-5.797705-1.304483Z" transform="translate(9.27633-2.029196)" fill="#b14202" stroke-width="1.28"/><path d="M550.866478,610.826903q-12.899895,2.75391-11.740354,7.102189t6.087591,11.305525l-2.319082-12.610009q7.681959-2.029197,9.421271-2.029197t4.348279-2.464025q-5.797704-1.014597-5.797705-1.304483Z" transform="translate(2.319083-1.014598)" fill="#f57125" stroke-width="1.28"/></g><g transform="matrix(-1 0 0 1 1155.833144-5.523691)"><path d="M550.866478,610.826903q-12.899895,2.75391-11.740354,7.102189t6.087591,11.305525l-2.319082-12.610009q7.681959-2.029197,9.421271-2.029197t4.348279-2.464025q-5.797704-1.014597-5.797705-1.304483Z" transform="translate(9.27633-2.029196)" fill="#b14202" stroke-width="1.28"/><path d="M550.866478,610.826903q-12.899895,2.75391-11.740354,7.102189t6.087591,11.305525l-2.319082-12.610009q7.681959-2.029197,9.421271-2.029197t4.348279-2.464025q-5.797704-1.014597-5.797705-1.304483Z" transform="translate(2.319083-1.014598)" fill="#f57125" stroke-width="1.28"/></g><g transform="matrix(-1 0 0 1 1148.952548-7.58271)"><path d="M533.650726,595.624391q.000001,5.899659,3.517105,6.580389c3.517104.68073.907639-4.424745-.113456-6.580389s5.899658,3.063283,6.013113,3.744013-.226909,6.126569-.453819,6.126569-4.424745,2.382554-6.12657,1.474914-4.424745-.907642-4.99202-2.382556-5.332379-10.664762,2.155647-8.96294Z" transform="translate(.000003 0.000003)" fill="#f57125" stroke-width="1.28"/><path d="M537.325309,606.84757q0,.18466,9.232989,6.647753q4.801154-2.769898,4.616494-2.769898t-8.49435-5.724455q-5.355134,1.661937-5.355133,1.8466Z" transform="translate(.000001 0.000004)" fill="#f57125" stroke-width="1.28"/></g><ellipse rx="32.782555" ry="17.854784" transform="matrix(.818824 0 0 0.784048 575.804562 602.192281)" fill="#f47124" stroke-width="0"/></g><g transform="translate(.000001 0.000001)"><ellipse rx="3.98754" ry="3.98754" transform="translate(568.835749 605.462841)" fill="#090909" stroke-width="0"/><ellipse rx="3.98754" ry="3.98754" transform="matrix(.521931 0 0 0.524854 567.851756 603.916566)" fill="#fff" stroke-width="0"/></g><g transform="translate(.000001 0.000001)"><ellipse rx="3.98754" ry="3.98754" transform="translate(568.835749 605.462841)" fill="#090909" stroke-width="0"/><ellipse rx="3.98754" ry="3.98754" transform="matrix(.521931 0 0 0.524854 567.851756 603.916566)" fill="#fff" stroke-width="0"/></g><g transform="translate(14.371063-.214493)"><ellipse rx="3.98754" ry="3.98754" transform="translate(568.835749 605.462841)" fill="#090909" stroke-width="0"/><ellipse rx="3.98754" ry="3.98754" transform="matrix(.521931 0 0 0.524854 567.851756 603.916566)" fill="#fff" stroke-width="0"/></g><path d="M573.229453,611.288665q.20688,0,7.344249.310321-3.310083,4.241045-7.344249-.310321Z" transform="translate(-1.987577 0.116918)" stroke-width="1.28"/><line x1="-6.488859" y1="-5.085863" x2="6.488859" y2="5.085863" transform="translate(566.822641 586.085545)" fill="none" stroke="#f57125" stroke-width="3"/><line x1="-6.488859" y1="-5.085863" x2="6.488859" y2="5.085863" transform="matrix(-1 0 0 1 583.190935 586.085544)" fill="none" stroke="#f57125" stroke-width="3"/></svg>
